<svg version="1.1" xmlns="http://www.w3.org/2000/svg" viewBox="0 0 704.0457065651577 851.5097438713583" width="1408.0914131303155" height="1703.0194877427166">
  <!-- svg-source:excalidraw -->
  
  <defs>
    <style class="style-fonts">
      @font-face {
        font-family: "Virgil";
        src: url("https://excalidraw.com/Virgil.woff2");
      }
      @font-face {
        font-family: "Cascadia";
        src: url("https://excalidraw.com/Cascadia.woff2");
      }
      @font-face {
        font-family: "Assistant";
        src: url("https://excalidraw.com/Assistant-Regular.woff2");
      }
    </style>
    
  </defs>
  <rect x="0" y="0" width="704.0457065651577" height="851.5097438713583" fill="#ffffff"></rect><g stroke-linecap="round" transform="translate(10 254.67633862834876) rotate(0 342.02285328257886 117.34658548032203)"><path d="M0 0 L684.05 0 L684.05 234.69 L0 234.69" stroke="none" stroke-width="0" fill="#ffffff"></path><path d="M0 0 C191.32 0, 382.64 0, 684.05 0 M0 0 C153.92 0, 307.84 0, 684.05 0 M684.05 0 C684.05 90.68, 684.05 181.36, 684.05 234.69 M684.05 0 C684.05 73.12, 684.05 146.25, 684.05 234.69 M684.05 234.69 C451.87 234.69, 219.68 234.69, 0 234.69 M684.05 234.69 C431.82 234.69, 179.58 234.69, 0 234.69 M0 234.69 C0 144.07, 0 53.46, 0 0 M0 234.69 C0 176, 0 117.32, 0 0" stroke="#1e1e1e" stroke-width="4" fill="none"></path></g><g stroke-linecap="round" transform="translate(238.64794696711942 10) rotate(0 108.8714770432602 47.060121352075825)"><path d="M0 0 C57.26 1.28, 111.19 2.13, 217.74 0 M0 0 C47.85 1.65, 96.7 1.85, 217.74 0 M217.74 0 C218.9 33.96, 218.64 69.05, 217.74 94.12 M217.74 0 C219.07 28.6, 219.42 58.03, 217.74 94.12 M217.74 94.12 C148.36 94.41, 78.06 94.13, 0 94.12 M217.74 94.12 C158.76 95.84, 101.21 95, 0 94.12 M0 94.12 C0.49 64.62, -1.55 33.2, 0 0 M0 94.12 C-0.18 64.69, -0.33 35.3, 0 0" stroke="#1e1e1e" stroke-width="2" fill="none"></path></g><g stroke-linecap="round" transform="translate(40.27023472750392 332.66448352097575) rotate(0 93.81161812429283 21.800832402995525)"><path d="M0 0 L187.62 0 L187.62 43.6 L0 43.6" stroke="none" stroke-width="0" fill="#ffc9c9"></path><path d="M0 0 C38.81 0, 77.62 0, 187.62 0 M0 0 C54.03 0, 108.07 0, 187.62 0 M187.62 0 C187.62 9.22, 187.62 18.44, 187.62 43.6 M187.62 0 C187.62 11.07, 187.62 22.14, 187.62 43.6 M187.62 43.6 C126.92 43.6, 66.22 43.6, 0 43.6 M187.62 43.6 C143.96 43.6, 100.3 43.6, 0 43.6 M0 43.6 C0 33.97, 0 24.34, 0 0 M0 43.6 C0 32.88, 0 22.15, 0 0" stroke="#1e1e1e" stroke-width="2" fill="none"></path></g><g transform="translate(57.909977851796725 342.4653159239713) rotate(0 76.171875 12)"><text x="76.171875" y="0" font-family="Cascadia, Segoe UI Emoji" font-size="20px" fill="#1e1e1e" text-anchor="middle" style="white-space: pre;" direction="ltr" dominant-baseline="text-before-edge">External CLIs</text></g><g stroke-linecap="round" transform="translate(257.0652781442328 332.1813579505083) rotate(0 93.81161812429286 21.800832402995525)"><path d="M0 0 L187.62 0 L187.62 43.6 L0 43.6" stroke="none" stroke-width="0" fill="#ffec99"></path><path d="M0 0 C49.09 0, 98.19 0, 187.62 0 M0 0 C57.14 0, 114.29 0, 187.62 0 M187.62 0 C187.62 10.23, 187.62 20.47, 187.62 43.6 M187.62 0 C187.62 17.16, 187.62 34.32, 187.62 43.6 M187.62 43.6 C138.3 43.6, 88.98 43.6, 0 43.6 M187.62 43.6 C121.44 43.6, 55.25 43.6, 0 43.6 M0 43.6 C0 32.45, 0 21.3, 0 0 M0 43.6 C0 28.2, 0 12.81, 0 0" stroke="#1e1e1e" stroke-width="2" fill="none"></path></g><g transform="translate(262.9862712685257 341.9821903535038) rotate(0 87.890625 12)"><text x="87.890625" y="0" font-family="Cascadia, Segoe UI Emoji" font-size="20px" fill="#1e1e1e" text-anchor="middle" style="white-space: pre;" direction="ltr" dominant-baseline="text-before-edge">Shell Built-ins</text></g><g stroke-linecap="round" transform="translate(478.80281352635495 331.6818421353621) rotate(0 93.81161812429286 21.80136267351861)"><path d="M0 0 L187.62 0 L187.62 43.6 L0 43.6" stroke="none" stroke-width="0" fill="#b2f2bb"></path><path d="M0 0 C55.24 0, 110.49 0, 187.62 0 M0 0 C64.35 0, 128.71 0, 187.62 0 M187.62 0 C187.62 9, 187.62 17.99, 187.62 43.6 M187.62 0 C187.62 9.17, 187.62 18.34, 187.62 43.6 M187.62 43.6 C142.77 43.6, 97.92 43.6, 0 43.6 M187.62 43.6 C115.35 43.6, 43.07 43.6, 0 43.6 M0 43.6 C0 34.75, 0 25.91, 0 0 M0 43.6 C0 31.19, 0 18.77, 0 0" stroke="#1e1e1e" stroke-width="2" fill="none"></path></g><g transform="translate(484.7238066506478 341.4832048088807) rotate(0 87.890625 12)"><text x="87.890625" y="0" font-family="Cascadia, Segoe UI Emoji" font-size="20px" fill="#1e1e1e" text-anchor="middle" style="white-space: pre;" direction="ltr" dominant-baseline="text-before-edge">System Builtins</text></g><g stroke-linecap="round" transform="translate(40.60244679359215 376.048079180316) rotate(0 93.66725081594237 19.834065460241277)"><path d="M0 0 L187.33 0 L187.33 39.67 L0 39.67" stroke="none" stroke-width="0" fill="#a5d8ff"></path><path d="M0 0 C54.66 0, 109.31 0, 187.33 0 M0 0 C40.05 0, 80.1 0, 187.33 0 M187.33 0 C187.33 14.14, 187.33 28.27, 187.33 39.67 M187.33 0 C187.33 9.27, 187.33 18.54, 187.33 39.67 M187.33 39.67 C126.26 39.67, 65.19 39.67, 0 39.67 M187.33 39.67 C127.64 39.67, 67.94 39.67, 0 39.67 M0 39.67 C0 31.67, 0 23.67, 0 0 M0 39.67 C0 28.32, 0 16.98, 0 0" stroke="#1e1e1e" stroke-width="2" fill="none"></path></g><g transform="translate(65.70241225387849 388.34837860012965) rotate(0 75 9.599999999999994)"><text x="0" y="0" font-family="Cascadia, Segoe UI Emoji" font-size="16px" fill="#1e1e1e" text-anchor="start" style="white-space: pre;" direction="ltr" dominant-baseline="text-before-edge">E.g. fzf, ffmpeg</text></g><g stroke-linecap="round" transform="translate(257.43850203169745 376.112503119523) rotate(0 93.6672508159424 19.83406546024125)"><path d="M0 0 L187.33 0 L187.33 39.67 L0 39.67" stroke="none" stroke-width="0" fill="#a5d8ff"></path><path d="M0 0 C68.74 0, 137.48 0, 187.33 0 M0 0 C64.66 0, 129.33 0, 187.33 0 M187.33 0 C187.33 15.24, 187.33 30.49, 187.33 39.67 M187.33 0 C187.33 8.88, 187.33 17.76, 187.33 39.67 M187.33 39.67 C140.83 39.67, 94.33 39.67, 0 39.67 M187.33 39.67 C135.67 39.67, 84 39.67, 0 39.67 M0 39.67 C0 30.15, 0 20.63, 0 0 M0 39.67 C0 31.59, 0 23.51, 0 0" stroke="#1e1e1e" stroke-width="2" fill="none"></path></g><g transform="translate(275.2068396135692 389.5417954227146) rotate(0 77.8271484375 7.593224271753485)"><text x="0" y="0" font-family="Cascadia, Segoe UI Emoji" font-size="12.6553737862558px" fill="#1e1e1e" text-anchor="start" style="white-space: pre;" direction="ltr" dominant-baseline="text-before-edge">E.g. command, compgen</text></g><g stroke-linecap="round" transform="translate(478.57424949555866 376.1346206959963) rotate(0 93.87424912486694 19.83406546024125)"><path d="M0 0 L187.75 0 L187.75 39.67 L0 39.67" stroke="none" stroke-width="0" fill="#a5d8ff"></path><path d="M0 0 C68.14 0, 136.28 0, 187.75 0 M0 0 C44.17 0, 88.33 0, 187.75 0 M187.75 0 C187.75 15.46, 187.75 30.91, 187.75 39.67 M187.75 0 C187.75 8.12, 187.75 16.25, 187.75 39.67 M187.75 39.67 C139.37 39.67, 90.98 39.67, 0 39.67 M187.75 39.67 C123.83 39.67, 59.92 39.67, 0 39.67 M0 39.67 C0 30.53, 0 21.39, 0 0 M0 39.67 C0 31.37, 0 23.07, 0 0" stroke="#1e1e1e" stroke-width="2" fill="none"></path></g><g transform="translate(496.4923445791271 387.27371328309357) rotate(0 78.16406249999994 8.007012490646474)"><text x="0" y="0" font-family="Cascadia, Segoe UI Emoji" font-size="13.345020817744105px" fill="#1e1e1e" text-anchor="start" style="white-space: pre;" direction="ltr" dominant-baseline="text-before-edge">E.g. ls, pwd, whoami</text></g><g stroke-linecap="round"><g transform="translate(338.14508367053304 107.86042922606742) rotate(0 -93.25671283727513 72.54630614201274)"><path d="M0 0 C-48.16 37.47, -96.33 74.94, -186.51 145.09 M0 0 C-51.84 40.33, -103.69 80.66, -186.51 145.09" stroke="#1e1e1e" stroke-width="2" fill="none"></path></g><g transform="translate(338.14508367053304 107.86042922606742) rotate(0 -93.25671283727513 72.54630614201274)"><path d="M-173.22 123.92 C-176.65 129.39, -180.09 134.85, -186.51 145.09 M-173.22 123.92 C-176.92 129.8, -180.61 135.69, -186.51 145.09" stroke="#1e1e1e" stroke-width="2" fill="none"></path></g><g transform="translate(338.14508367053304 107.86042922606742) rotate(0 -93.25671283727513 72.54630614201274)"><path d="M-162.72 137.42 C-168.86 139.4, -175.01 141.38, -186.51 145.09 M-162.72 137.42 C-169.33 139.55, -175.95 141.68, -186.51 145.09" stroke="#1e1e1e" stroke-width="2" fill="none"></path></g></g><mask></mask><g stroke-linecap="round"><g transform="translate(338.2610842682825 106.97504016627178) rotate(0 0.2930447291596465 73.36289897672594)"><path d="M0 0 C0.16 39.04, 0.31 78.09, 0.59 146.73 M0 0 C0.14 34.76, 0.28 69.52, 0.59 146.73" stroke="#1e1e1e" stroke-width="2" fill="none"></path></g><g transform="translate(338.2610842682825 106.97504016627178) rotate(0 0.2930447291596465 73.36289897672594)"><path d="M-8.06 123.27 C-5.76 129.51, -3.46 135.75, 0.59 146.73 M-8.06 123.27 C-6.01 128.83, -3.96 134.38, 0.59 146.73" stroke="#1e1e1e" stroke-width="2" fill="none"></path></g><g transform="translate(338.2610842682825 106.97504016627178) rotate(0 0.2930447291596465 73.36289897672594)"><path d="M9.04 123.2 C6.79 129.46, 4.54 135.72, 0.59 146.73 M9.04 123.2 C7.04 128.77, 5.04 134.35, 0.59 146.73" stroke="#1e1e1e" stroke-width="2" fill="none"></path></g></g><mask></mask><g stroke-linecap="round"><g transform="translate(338.48660853298645 107.1137284516391) rotate(0 94.43969731791418 72.7657280672286)"><path d="M0 0 C42.34 32.62, 84.68 65.25, 188.88 145.53 M0 0 C44.4 34.21, 88.8 68.42, 188.88 145.53" stroke="#1e1e1e" stroke-width="2" fill="none"></path></g><g transform="translate(338.48660853298645 107.1137284516391) rotate(0 94.43969731791418 72.7657280672286)"><path d="M165.05 137.97 C170.39 139.66, 175.73 141.36, 188.88 145.53 M165.05 137.97 C170.65 139.74, 176.25 141.52, 188.88 145.53" stroke="#1e1e1e" stroke-width="2" fill="none"></path></g><g transform="translate(338.48660853298645 107.1137284516391) rotate(0 94.43969731791418 72.7657280672286)"><path d="M175.49 124.42 C178.49 129.15, 181.49 133.88, 188.88 145.53 M175.49 124.42 C178.64 129.38, 181.78 134.35, 188.88 145.53" stroke="#1e1e1e" stroke-width="2" fill="none"></path></g></g><mask></mask><g stroke-linecap="round" transform="translate(268.193054672127 782.3349980852759) rotate(0 90.45895320153528 9.28947368421052)"><path d="M0 0 C0 0, 0 0, 0 0 M0 0 C0 0, 0 0, 0 0 M-0.26 6.4 C1.11 5.21, 2.67 3.57, 4.99 0.36 M-0.26 6.4 C0.93 5.23, 2.05 3.54, 4.99 0.36 M0.13 12.04 C4.01 7.63, 7.56 3.5, 10.63 -0.03 M0.13 12.04 C4.08 7.81, 7.8 3.72, 10.63 -0.03 M-0.13 18.44 C5.37 10.69, 12.12 5.59, 15.62 0.33 M-0.13 18.44 C3.6 14.32, 6.47 10.8, 15.62 0.33 M4.86 18.8 C10.75 13.2, 15.65 6.12, 21.26 -0.07 M4.86 18.8 C10.68 11.89, 15.64 5.56, 21.26 -0.07 M9.85 19.16 C14.56 13.6, 20.84 8.18, 26.25 0.29 M9.85 19.16 C14.85 13.15, 20.99 6.2, 26.25 0.29 M15.49 18.76 C20.92 12.25, 28.67 3.76, 31.89 -0.1 M15.49 18.76 C21.75 12.09, 27.33 5.6, 31.89 -0.1 M20.48 19.12 C24.71 14.39, 27.81 10.57, 36.88 0.26 M20.48 19.12 C26.08 12.1, 32.5 5.1, 36.88 0.26 M25.46 19.48 C31.68 14.02, 36.52 7.44, 42.52 -0.14 M25.46 19.48 C31.8 13.17, 36.86 5.78, 42.52 -0.14 M31.11 19.09 C36.52 12.8, 42.39 7.55, 47.51 0.22 M31.11 19.09 C37.49 11.74, 43.29 4.64, 47.51 0.22 M36.09 19.45 C39.19 14.8, 44.15 10.68, 53.15 -0.17 M36.09 19.45 C40.85 13.48, 45.32 8.41, 53.15 -0.17 M41.74 19.06 C45.32 15.18, 50.32 10.07, 58.14 0.19 M41.74 19.06 C45.1 14.76, 48.84 11.46, 58.14 0.19 M46.72 19.42 C52.93 12.56, 58.29 5.72, 63.78 -0.21 M46.72 19.42 C52.1 13.37, 57.59 6.61, 63.78 -0.21 M52.37 19.02 C57.9 11.59, 64.58 5.52, 68.77 0.15 M52.37 19.02 C57.53 13.18, 62.12 7.87, 68.77 0.15 M57.35 19.38 C63.81 13.14, 68.8 4.69, 74.41 -0.24 M57.35 19.38 C61.01 14.7, 65.19 10.66, 74.41 -0.24 M63 18.99 C67.63 15.27, 71.41 9.53, 79.4 0.12 M63 18.99 C67.03 14.55, 70.48 10.26, 79.4 0.12 M67.98 19.35 C74.06 11.2, 81.29 4.64, 85.04 -0.28 M67.98 19.35 C73.76 12.17, 80.01 5.5, 85.04 -0.28 M73.63 18.95 C77.17 13.6, 81.39 8.8, 90.03 0.08 M73.63 18.95 C78.65 13.26, 83.94 7.23, 90.03 0.08 M78.61 19.31 C82.35 15.64, 85.18 10.66, 95.67 -0.31 M78.61 19.31 C82.91 14.64, 87.17 9.48, 95.67 -0.31 M84.26 18.92 C89.03 12.86, 94.94 6.2, 100.66 0.05 M84.26 18.92 C88.7 13.52, 94.07 8.14, 100.66 0.05 M89.24 19.28 C93.88 13.72, 98.28 8.44, 106.3 -0.34 M89.24 19.28 C93.95 14.24, 98.79 9.09, 106.3 -0.34 M94.89 18.88 C98.27 14.65, 101.64 9.74, 111.29 0.02 M94.89 18.88 C98.81 14.58, 103.12 9.35, 111.29 0.02 M99.87 19.24 C103.72 15.66, 106.7 10.37, 116.27 0.38 M99.87 19.24 C105.57 13.04, 111.55 6.39, 116.27 0.38 M105.52 18.85 C109.44 14.66, 114.27 8.18, 121.92 -0.02 M105.52 18.85 C111.38 12.01, 117.17 5.18, 121.92 -0.02 M110.5 19.21 C114.46 15.35, 118.87 10.2, 126.91 0.34 M110.5 19.21 C114.25 14.24, 118.8 10.26, 126.91 0.34 M116.15 18.81 C121.68 13.64, 126.21 6.65, 132.55 -0.05 M116.15 18.81 C121.45 12.89, 126.23 7.45, 132.55 -0.05 M121.13 19.17 C126.13 13.93, 129.1 9.26, 137.54 0.31 M121.13 19.17 C126.27 13.5, 130.34 8.83, 137.54 0.31 M126.78 18.78 C131.19 13.73, 135.81 7.69, 143.18 -0.09 M126.78 18.78 C130.3 14.71, 133.17 10.53, 143.18 -0.09 M131.76 19.14 C138.99 10.66, 145.54 4.87, 148.17 0.27 M131.76 19.14 C135.27 15.89, 138.21 11.35, 148.17 0.27 M137.41 18.74 C141.87 12.88, 146.25 7.85, 153.81 -0.12 M137.41 18.74 C143.13 12.64, 148.9 5.13, 153.81 -0.12 M142.39 19.11 C146.73 12.84, 151.53 7.86, 158.8 0.24 M142.39 19.11 C148.42 12.63, 153.19 6.44, 158.8 0.24 M147.38 19.47 C153.57 12.71, 159.45 6.88, 164.44 -0.16 M147.38 19.47 C152.07 13.63, 157.37 8.3, 164.44 -0.16 M153.02 19.07 C158.57 13.25, 165.23 5.31, 169.43 0.2 M153.02 19.07 C156.41 14.48, 160.95 10.92, 169.43 0.2 M158.01 19.43 C161.97 13.04, 167.11 9.28, 175.07 -0.19 M158.01 19.43 C162.94 14.22, 167.61 8.68, 175.07 -0.19 M163.65 19.04 C167.73 14.16, 173.19 7, 180.06 0.17 M163.65 19.04 C169.8 12.13, 175.89 4.25, 180.06 0.17 M168.64 19.4 C171.32 15.56, 174.22 12.13, 181.11 5.06 M168.64 19.4 C171.73 15.31, 175.65 11.29, 181.11 5.06 M174.28 19 C176.32 16.21, 178.77 14.15, 181.5 10.7 M174.28 19 C176.83 16.21, 179.11 13.08, 181.5 10.7 M179.27 19.36 C179.89 18.56, 180.59 17.54, 181.24 17.1 M179.27 19.36 C179.81 18.7, 180.55 17.92, 181.24 17.1" stroke="#868e96" stroke-width="0.5" fill="none"></path><path d="M0 0 C43.32 0.26, 86.97 -0.11, 180.92 0 M0 0 C55.83 0.71, 111.41 1.06, 180.92 0 M180.92 0 C180.07 3.85, 180.52 8.61, 180.92 18.58 M180.92 0 C181.26 5.15, 181.22 10.02, 180.92 18.58 M180.92 18.58 C111.72 18.24, 42.17 18.94, 0 18.58 M180.92 18.58 C125.9 18.97, 71.1 18.62, 0 18.58 M0 18.58 C-0.28 15.51, -0.35 10.46, 0 0 M0 18.58 C0.13 14.25, -0.1 9.71, 0 0" stroke="#000000" stroke-width="1" fill="none"></path></g><g stroke-linecap="round" transform="translate(267.4182815461354 752.4424451337159) rotate(0 90.95262247139107 9.28947368421052)"><path d="M0 0 C0 0, 0 0, 0 0 M0 0 C0 0, 0 0, 0 0 M-0.26 6.4 C1.25 5.15, 1.66 4.19, 4.99 0.36 M-0.26 6.4 C1.8 3.86, 3.87 1.77, 4.99 0.36 M0.13 12.04 C3.01 8.72, 5.64 5.84, 10.63 -0.03 M0.13 12.04 C3.66 8.42, 6.83 4.8, 10.63 -0.03 M-0.13 18.44 C5.31 13.59, 8.95 7.67, 15.62 0.33 M-0.13 18.44 C3.81 13.86, 8.44 8.56, 15.62 0.33 M4.86 18.8 C9.9 12.6, 14.52 8.7, 21.26 -0.07 M4.86 18.8 C9.51 12.71, 15.26 6.69, 21.26 -0.07 M9.85 19.16 C15.57 14.22, 20.41 8.21, 26.25 0.29 M9.85 19.16 C16.45 11.6, 23.01 4.2, 26.25 0.29 M15.49 18.76 C20.83 12.75, 25.52 7.86, 31.89 -0.1 M15.49 18.76 C21.88 11.82, 27.66 3.87, 31.89 -0.1 M20.48 19.12 C25.3 13.38, 30.99 7.63, 36.88 0.26 M20.48 19.12 C24.2 14.69, 27.6 10.75, 36.88 0.26 M25.46 19.48 C31.04 13.52, 36.24 7.23, 42.52 -0.14 M25.46 19.48 C28.65 14.96, 32.96 10.81, 42.52 -0.14 M31.11 19.09 C37.61 13.08, 43.24 6.63, 47.51 0.22 M31.11 19.09 C34.45 14.81, 38.32 9.82, 47.51 0.22 M36.09 19.45 C41.19 14.06, 44.17 9.69, 53.15 -0.17 M36.09 19.45 C39.45 15.16, 43.55 10.7, 53.15 -0.17 M41.74 19.06 C45.72 15.3, 48.53 9.74, 58.14 0.19 M41.74 19.06 C47.5 13.04, 52.64 6.53, 58.14 0.19 M46.72 19.42 C50.64 14.39, 55.41 10.35, 63.78 -0.21 M46.72 19.42 C51.65 13.48, 57.27 7.21, 63.78 -0.21 M52.37 19.02 C57.78 13.38, 63.26 7.43, 68.77 0.15 M52.37 19.02 C58.52 12.11, 64.33 5.15, 68.77 0.15 M57.35 19.38 C62.51 11.77, 68.09 5.67, 74.41 -0.24 M57.35 19.38 C61.37 15.05, 65.22 9.9, 74.41 -0.24 M63 18.99 C69.4 11.71, 73.67 6.43, 79.4 0.12 M63 18.99 C66.31 15.01, 70.25 10.84, 79.4 0.12 M67.98 19.35 C74.15 12.94, 81.11 5.46, 85.04 -0.28 M67.98 19.35 C73.73 12.9, 79.47 5.95, 85.04 -0.28 M73.63 18.95 C78.44 12.33, 85.05 5.44, 90.03 0.08 M73.63 18.95 C79.41 12.4, 84.3 5.62, 90.03 0.08 M78.61 19.31 C82.43 13.63, 86.75 8.5, 95.67 -0.31 M78.61 19.31 C85.18 11.72, 92.33 3.63, 95.67 -0.31 M84.26 18.92 C89.11 12.97, 95.24 6.77, 100.66 0.05 M84.26 18.92 C88.21 14.93, 91.25 10.93, 100.66 0.05 M89.24 19.28 C95.47 11.79, 101.31 5.88, 106.3 -0.34 M89.24 19.28 C94.52 13.99, 98.63 7.56, 106.3 -0.34 M94.89 18.88 C99.28 12.41, 104.02 7.62, 111.29 0.02 M94.89 18.88 C99.74 13.18, 104.39 7.86, 111.29 0.02 M99.87 19.24 C105.06 12.29, 110.79 7.51, 116.27 0.38 M99.87 19.24 C103.42 15.66, 106.46 11.65, 116.27 0.38 M105.52 18.85 C111.4 11.53, 117.24 5.43, 121.92 -0.02 M105.52 18.85 C109.21 14.27, 113.49 9.67, 121.92 -0.02 M110.5 19.21 C117.84 11.46, 122.76 4.28, 126.91 0.34 M110.5 19.21 C114.66 15.07, 118.19 10.31, 126.91 0.34 M116.15 18.81 C121.58 11.86, 127.33 5.94, 132.55 -0.05 M116.15 18.81 C121.7 12.65, 126.49 6.19, 132.55 -0.05 M121.13 19.17 C125.52 13.25, 131.09 6.93, 137.54 0.31 M121.13 19.17 C126.58 13.09, 132.05 6.45, 137.54 0.31 M126.78 18.78 C132.67 11.34, 137.03 5.4, 143.18 -0.09 M126.78 18.78 C132.38 11.45, 139.33 5.04, 143.18 -0.09 M131.76 19.14 C136.59 15.17, 139.13 9.93, 148.17 0.27 M131.76 19.14 C135.01 14.87, 138.48 11.32, 148.17 0.27 M137.41 18.74 C142.47 12.31, 148.2 6.37, 153.81 -0.12 M137.41 18.74 C141.12 13.9, 145.07 9.51, 153.81 -0.12 M142.39 19.11 C146.13 14.09, 151.39 8.88, 158.8 0.24 M142.39 19.11 C145.36 15.26, 149.4 11.19, 158.8 0.24 M147.38 19.47 C154.92 12.13, 160.67 4.22, 164.44 -0.16 M147.38 19.47 C153.66 12.71, 160.17 5.3, 164.44 -0.16 M153.02 19.07 C157.4 14.24, 159.17 10.5, 169.43 0.2 M153.02 19.07 C157.06 15.42, 160.05 10.62, 169.43 0.2 M158.01 19.43 C162.03 15.18, 167.11 9.76, 175.07 -0.19 M158.01 19.43 C161.54 15.59, 165.13 11.52, 175.07 -0.19 M163.65 19.04 C167.36 13.76, 172.6 9.68, 180.06 0.17 M163.65 19.04 C169.57 11.56, 176.03 4.14, 180.06 0.17 M168.64 19.4 C173.33 13.17, 178.91 8.12, 182.42 3.55 M168.64 19.4 C171.74 15.86, 174.1 13.14, 182.42 3.55 M174.28 19 C177.59 15.6, 180.14 12.96, 182.16 9.95 M174.28 19 C177.18 15.3, 180.54 12.2, 182.16 9.95 M179.27 19.36 C180.13 17.9, 181.43 16.94, 182.55 15.59 M179.27 19.36 C180.65 17.84, 181.8 16.48, 182.55 15.59" stroke="#868e96" stroke-width="0.5" fill="none"></path><path d="M0 0 C42.67 -0.4, 87.26 -0.36, 181.91 0 M0 0 C40.13 0.35, 80.28 0.2, 181.91 0 M181.91 0 C181.38 6.07, 181.56 11.68, 181.91 18.58 M181.91 0 C182.17 6.56, 182.35 13.26, 181.91 18.58 M181.91 18.58 C120.11 17.93, 58.21 18.2, 0 18.58 M181.91 18.58 C123.28 18.72, 63.58 18.47, 0 18.58 M0 18.58 C-0.39 13.08, -0.55 9.22, 0 0 M0 18.58 C-0.07 13.96, -0.28 9.06, 0 0" stroke="#000000" stroke-width="1" fill="none"></path></g><g stroke-linecap="round" transform="translate(267.49782937242776 722.5578850591351) rotate(0 90.97190387441634 8.486777605779196)"><path d="M0 0 C0 0, 0 0, 0 0 M0 0 C0 0, 0 0, 0 0 M-0.26 6.4 C1.29 4.6, 3.86 2.15, 4.99 0.36 M-0.26 6.4 C1.86 4.13, 3.72 1.8, 4.99 0.36 M0.13 12.04 C3.19 8.67, 5.57 6.4, 10.63 -0.03 M0.13 12.04 C3.46 8.65, 6.28 4.8, 10.63 -0.03 M0.53 17.68 C2.78 14.54, 6.39 11.11, 15.62 0.33 M0.53 17.68 C4.72 12.89, 8.64 8.63, 15.62 0.33 M6.17 17.29 C11.59 12.2, 16.29 6.28, 21.26 -0.07 M6.17 17.29 C9.73 13.17, 13.09 9.26, 21.26 -0.07 M11.16 17.65 C16.6 12.44, 22.24 4.9, 26.25 0.29 M11.16 17.65 C17.29 10.75, 22.56 3.99, 26.25 0.29 M16.8 17.25 C22.9 10.82, 28.77 5.26, 31.89 -0.1 M16.8 17.25 C21.29 11.23, 26.57 6.19, 31.89 -0.1 M21.79 17.61 C26.2 13.18, 28.5 8.25, 36.88 0.26 M21.79 17.61 C25.51 13.07, 29.19 9.6, 36.88 0.26 M27.43 17.22 C33.27 10.75, 37.4 5.55, 42.52 -0.14 M27.43 17.22 C33.43 10.54, 39.4 3.93, 42.52 -0.14 M32.42 17.58 C37.34 13.3, 39.92 8.21, 47.51 0.22 M32.42 17.58 C36.29 12.24, 40.73 7.51, 47.51 0.22 M38.06 17.19 C41.34 12.79, 44.27 8.89, 53.15 -0.17 M38.06 17.19 C41.03 13.57, 44 9.73, 53.15 -0.17 M43.05 17.55 C48.05 10.23, 55.26 3.75, 58.14 0.19 M43.05 17.55 C46.33 13.61, 48.98 10.45, 58.14 0.19 M48.04 17.91 C52.85 13.36, 57.1 7.27, 63.78 -0.21 M48.04 17.91 C54.23 10.77, 59.83 4.23, 63.78 -0.21 M53.68 17.51 C57.57 13.84, 62.25 9.31, 68.77 0.15 M53.68 17.51 C57.4 13.14, 60.86 9.63, 68.77 0.15 M58.67 17.87 C63.77 10.88, 69.58 4.07, 74.41 -0.24 M58.67 17.87 C62.5 12.9, 67.22 8.67, 74.41 -0.24 M64.31 17.48 C69.15 11.75, 74.52 5.25, 79.4 0.12 M64.31 17.48 C68.87 12.49, 72.84 7.73, 79.4 0.12 M69.3 17.84 C73.99 13.5, 77.93 7.78, 85.04 -0.28 M69.3 17.84 C73.43 12.81, 78.13 7.52, 85.04 -0.28 M74.94 17.44 C79.1 12.27, 83.45 8.09, 90.03 0.08 M74.94 17.44 C79.34 11.3, 84.51 6.22, 90.03 0.08 M79.93 17.8 C84.67 11.04, 91.24 5.74, 95.67 -0.31 M79.93 17.8 C86.13 10.81, 92.01 3.64, 95.67 -0.31 M85.57 17.41 C90.85 11.8, 95.44 4.6, 100.66 0.05 M85.57 17.41 C89.89 12.35, 94.94 6.99, 100.66 0.05 M90.56 17.77 C94.49 13.74, 98.9 8.42, 106.3 -0.34 M90.56 17.77 C95.62 10.95, 101.55 4.8, 106.3 -0.34 M96.2 17.37 C100.07 12.25, 104.83 7.03, 111.29 0.02 M96.2 17.37 C101.8 10.88, 108.36 3.74, 111.29 0.02 M101.19 17.73 C106.85 12.2, 110.53 5.86, 116.27 0.38 M101.19 17.73 C106.59 11.46, 112.62 4.58, 116.27 0.38 M106.83 17.34 C113.06 10.3, 117.49 4.08, 121.92 -0.02 M106.83 17.34 C111.31 12.2, 116.88 6.51, 121.92 -0.02 M111.82 17.7 C116.48 11.51, 121.68 5, 126.91 0.34 M111.82 17.7 C114.99 13.78, 118.34 10.56, 126.91 0.34 M117.46 17.3 C123.05 11.02, 128.9 5.32, 132.55 -0.05 M117.46 17.3 C120.88 12.65, 124.8 9.2, 132.55 -0.05 M122.45 17.66 C126.35 12.49, 130.99 9.33, 137.54 0.31 M122.45 17.66 C125.78 13.68, 129.64 9.62, 137.54 0.31 M128.09 17.27 C131.68 11.62, 137.84 7.06, 143.18 -0.09 M128.09 17.27 C132.81 12.68, 136.25 8.12, 143.18 -0.09 M133.08 17.63 C135.1 14.43, 138.23 10.99, 148.17 0.27 M133.08 17.63 C139 10.92, 145.24 3.8, 148.17 0.27 M138.72 17.24 C142.72 12.67, 144.99 9.07, 153.81 -0.12 M138.72 17.24 C144.73 10.03, 150.58 3.17, 153.81 -0.12 M143.71 17.6 C147.58 13.22, 149.7 10.53, 158.8 0.24 M143.71 17.6 C148.11 12.81, 152.62 8.25, 158.8 0.24 M149.35 17.2 C153.38 12.54, 158.27 6.96, 164.44 -0.16 M149.35 17.2 C154.08 12.17, 157.9 6.75, 164.44 -0.16 M154.34 17.56 C158.96 10.76, 164.28 4.32, 169.43 0.2 M154.34 17.56 C157.53 13.22, 160.82 9.31, 169.43 0.2 M159.98 17.17 C163.11 14.18, 165.59 9.98, 175.07 -0.19 M159.98 17.17 C165.36 11.28, 170.43 4.35, 175.07 -0.19 M164.97 17.53 C171.61 10.87, 177.36 3.95, 180.06 0.17 M164.97 17.53 C170.65 10.47, 177.21 3.79, 180.06 0.17 M169.95 17.89 C173.12 14.76, 175.83 9.62, 182.42 3.55 M169.95 17.89 C172.92 14.42, 176.38 10.81, 182.42 3.55 M175.6 17.49 C177.21 16.17, 178.84 14.4, 182.16 9.95 M175.6 17.49 C177.96 15.16, 180.02 12.35, 182.16 9.95 M180.58 17.85 C181.25 17.14, 182 16.26, 182.55 15.59 M180.58 17.85 C181.29 17.04, 182.03 16.22, 182.55 15.59" stroke="#868e96" stroke-width="0.5" fill="none"></path><path d="M0 0 C49.49 -0.02, 98.03 0.64, 181.94 0 M0 0 C54.19 -0.44, 109.2 -1.12, 181.94 0 M181.94 0 C181.67 5.59, 182.4 10.17, 181.94 16.97 M181.94 0 C182.34 5.34, 182.15 10.9, 181.94 16.97 M181.94 16.97 C140.25 17.23, 98.7 17.06, 0 16.97 M181.94 16.97 C120.65 16.24, 60.16 16.47, 0 16.97 M0 16.97 C-0.49 11.17, -0.42 4.39, 0 0 M0 16.97 C-0.22 11.26, 0.34 6.57, 0 0" stroke="#000000" stroke-width="1" fill="none"></path></g><g transform="translate(282.31456441447835 820.5881690291757) rotate(0 81.703125 10.460787421091311)"><text x="81.703125" y="0" font-family="Cascadia, Segoe UI Emoji" font-size="17.43464570181889px" fill="#000000" text-anchor="middle" style="white-space: pre;" direction="ltr" dominant-baseline="text-before-edge">Shared Libraries</text></g><g stroke-linecap="round"><g transform="translate(166.81170872481073 495.76366753175535) rotate(0 96.54198803921662 108.87286091349637)"><path d="M0 0 C54.75 61.74, 109.5 123.48, 193.08 217.75" stroke="#1e1e1e" stroke-width="2.5" fill="none" stroke-dasharray="8 10"></path></g></g><mask></mask><g stroke-linecap="round"><g transform="translate(362.50064787882934 493.2067898297371) rotate(0 -0.46222834923156597 113.67218875157494)"><path d="M0 0 C-0.2 48.2, -0.39 96.39, -0.92 227.34" stroke="#1e1e1e" stroke-width="2.5" fill="none" stroke-dasharray="8 10"></path></g><g transform="translate(362.50064787882934 493.2067898297371) rotate(0 -0.46222834923156597 113.67218875157494)"><path d="M-0.92 227.34 L-7.21 213.72 L5.47 213.78 L-0.92 227.34" stroke="none" stroke-width="0" fill="#1e1e1e" fill-rule="evenodd"></path><path d="M-0.92 227.34 C-2.26 224.46, -3.59 221.57, -7.21 213.72 M-7.21 213.72 C-2.22 213.74, 2.77 213.76, 5.47 213.78 M5.47 213.78 C3.68 217.58, 1.88 221.39, -0.92 227.34 M-0.92 227.34 C-0.92 227.34, -0.92 227.34, -0.92 227.34" stroke="#1e1e1e" stroke-width="2.5" fill="none"></path></g></g><mask></mask><g stroke-linecap="round"><g transform="translate(543.4540297765271 494.2740111491253) rotate(0 -89.65459136962647 109.47874871585526)"><path d="M0 0 C-43.48 53.1, -86.96 106.19, -179.31 218.96" stroke="#1e1e1e" stroke-width="2.5" fill="none" stroke-dasharray="8 10"></path></g></g><mask></mask><g stroke-linecap="round" transform="translate(258.77888505826934 29.85880339615821) rotate(0 91.06984840970284 19.44510592779517)"><path d="M0 0 L182.14 0 L182.14 38.89 L0 38.89" stroke="none" stroke-width="0" fill="#b2f2bb"></path><path d="M0 0 C53.35 0, 106.7 0, 182.14 0 M0 0 C60.44 0, 120.88 0, 182.14 0 M182.14 0 C182.14 8.03, 182.14 16.06, 182.14 38.89 M182.14 0 C182.14 14.22, 182.14 28.44, 182.14 38.89 M182.14 38.89 C142.07 38.89, 102 38.89, 0 38.89 M182.14 38.89 C118.02 38.89, 53.91 38.89, 0 38.89 M0 38.89 C0 29.52, 0 20.15, 0 0 M0 38.89 C0 26.38, 0 13.86, 0 0" stroke="#1e1e1e" stroke-width="1" fill="none"></path></g><g transform="translate(288.02490516427054 37.06416430883175) rotate(0 64.453125 12)"><text x="0" y="0" font-family="Cascadia, Segoe UI Emoji" font-size="20px" fill="#1e1e1e" text-anchor="start" style="white-space: pre;" direction="ltr" dominant-baseline="text-before-edge">Your Script</text></g><g transform="translate(299.9869457992287 81.10339924887802) rotate(0 46.875 9.599999999999994)"><text x="46.875" y="0" font-family="Cascadia, Segoe UI Emoji" font-size="16px" fill="#1e1e1e" text-anchor="middle" style="white-space: pre;" direction="ltr" dominant-baseline="text-before-edge">Base Shell</text></g><g transform="translate(260.0133406575943 450.95920393238816) rotate(0 94.6787109375 11.40862362342449)"><text x="94.6787109375" y="0" font-family="Cascadia, Segoe UI Emoji" font-size="19.01437270570753px" fill="#1e1e1e" text-anchor="middle" style="white-space: pre;" direction="ltr" dominant-baseline="text-before-edge">Root Dependencies</text></g></svg>